<svg width="currentWidth" height="currentHeight" viewBox="0 0 38 38" fill="none" xmlns="http://www.w3.org/2000/svg">
<path fill-rule="evenodd" clip-rule="evenodd" d="M26.6466 19.1757V15.2006L30.0944 13.2161L30.0944 17.1912L26.6466 19.1757ZM19.7585 23.1495L19.7585 19.1743L23.2064 17.1898V21.1613L26.6504 19.179V23.1488L30.0944 21.1665L30.0944 25.1416L26.6466 27.1261V23.1563L23.2026 25.1387L23.2026 21.1671L19.7585 23.1495ZM19.7585 31.1013L19.7585 27.1262L23.2064 25.1417V29.1168L19.7585 31.1013Z" fill="currentColor"/>
<path fill-rule="evenodd" clip-rule="evenodd" d="M19.0453 9.9786L22.4834 7.99363L19.0408 6L15.5983 7.98757L19.0371 9.97903L15.599 11.964L19.0372 13.9551L15.603 15.9379L19.0455 17.9315L22.4881 15.9439L19.0499 13.9528L22.4841 11.9701L19.0453 9.9786ZM15.5983 11.9688L12.1557 13.9564L8.71313 11.9628L12.1557 9.9752L15.5983 11.9688ZM29.37 11.9713L25.9274 13.9589L22.4849 11.9652L25.9274 9.97766L29.37 11.9713Z" fill="currentColor"/>
<path fill-rule="evenodd" clip-rule="evenodd" d="M8.0001 13.2161L8.0001 17.1912L11.4479 19.1757L11.4479 15.2006L8.0001 13.2161ZM8 21.1677L8 25.1429L11.4478 27.1274V23.1561L14.8919 25.1385L14.8919 21.1684L18.3359 23.1507V19.1756L14.8881 17.1911V21.1611L11.444 19.1788L11.444 23.1501L8 21.1677ZM14.8881 25.1414V29.1166L18.3359 31.1011V27.126L14.8881 25.1414Z" fill="currentColor"/>
</svg>
