<svg width="currentWidth"  width="currentHeight"  viewBox="0 0 38 38" fill="none" xmlns="http://www.w3.org/2000/svg">
<path d="M10 13H12H28" stroke="currentColor" stroke-width="2" stroke-linecap="round" stroke-linejoin="round"/>
<path d="M26 13V27C26 27.5304 25.7893 28.0391 25.4142 28.4142C25.0391 28.7893 24.5304 29 24 29H14C13.4696 29 12.9609 28.7893 12.5858 28.4142C12.2107 28.0391 12 27.5304 12 27V13M15 13V11C15 10.4696 15.2107 9.96086 15.5858 9.58579C15.9609 9.21071 16.4696 9 17 9H21C21.5304 9 22.0391 9.21071 22.4142 9.58579C22.7893 9.96086 23 10.4696 23 11V13" stroke="currentColor" stroke-width="2" stroke-linecap="round" stroke-linejoin="round"/>
<path d="M17 18V24" stroke="currentColor" stroke-width="2" stroke-linecap="round" stroke-linejoin="round"/>
<path d="M21 18V24" stroke="currentColor" stroke-width="2" stroke-linecap="round" stroke-linejoin="round"/>
</svg>
